<?xml version="1.0" standalone="no"?>
<!DOCTYPE svg PUBLIC "-//W3C//DTD SVG 20010904//EN"
 "http://www.w3.org/TR/2001/REC-SVG-20010904/DTD/svg10.dtd">
<svg version="1.0" xmlns="http://www.w3.org/2000/svg"
 width="260.000000pt" height="260.000000pt" viewBox="0 0 260.000000 260.000000"
 preserveAspectRatio="xMidYMid meet">
<metadata>
Created by potrace 1.11, written by Peter Selinger 2001-2013
</metadata>
<g transform="translate(0.000000,260.000000) scale(0.100000,-0.100000)"
fill="#000000" stroke="none">
<path d="M1239 2414 c-1 -5 0 -13 1 -19 1 -5 4 -23 6 -40 2 -16 6 -39 8 -50 3
-11 5 -28 5 -38 1 -17 21 -29 101 -59 14 -5 26 -9 27 -9 2 0 17 -8 35 -19 18
-11 42 -24 54 -29 11 -5 45 -33 76 -63 60 -59 98 -139 98 -206 -1 -90 -54
-233 -144 -387 -19 -33 -42 -72 -51 -87 l-16 -28 60 0 59 0 65 70 c37 38 74
82 84 97 10 16 25 35 35 44 10 9 18 23 18 32 0 9 4 18 9 22 16 9 58 91 80 156
39 117 18 227 -62 312 -59 63 -122 100 -271 158 -162 63 -203 83 -243 122 -18
17 -34 27 -34 21z"/>
<path d="M660 2273 c0 -2 16 -23 35 -49 42 -55 67 -134 71 -229 1 -38 3 -72 4
-75 1 -3 2 -63 2 -135 0 -113 3 -136 23 -180 30 -66 91 -123 192 -178 70 -39
90 -45 137 -45 44 1 56 4 57 17 0 9 2 23 4 31 4 16 12 58 20 105 3 17 7 41 10
55 6 32 6 256 0 295 -8 46 -10 56 -29 120 -21 71 -36 101 -68 136 -76 84 -166
119 -336 128 -67 3 -122 5 -122 4z"/>
<path d="M1150 2202 c0 -6 6 -15 14 -19 22 -13 53 -71 79 -153 36 -107 40
-138 40 -295 -1 -135 -2 -155 -17 -220 -3 -16 -8 -41 -11 -55 -3 -14 -7 -37
-10 -51 -6 -27 -6 -27 57 -27 l63 0 52 87 c190 314 212 453 93 572 -51 51
-178 118 -270 143 -30 8 -63 17 -72 21 -11 4 -18 3 -18 -3z"/>
<path d="M1033 1223 c-9 -61 -9 -61 22 -86 27 -21 34 -38 50 -109 10 -45 18
-85 17 -88 0 -3 4 -12 8 -20 4 -8 11 -32 14 -54 4 -21 8 -41 11 -45 2 -4 6
-18 9 -32 3 -13 12 -50 19 -81 8 -32 13 -58 10 -58 -2 0 1 -8 6 -17 5 -10 12
-31 15 -48 3 -16 19 -84 36 -150 17 -66 33 -127 35 -135 2 -8 4 -23 4 -32 1
-10 5 -18 9 -18 8 0 55 186 52 200 -1 3 3 17 9 33 6 15 13 38 15 50 3 12 25
105 51 207 25 102 56 227 69 278 22 88 32 108 71 140 8 7 13 18 9 23 -3 5 -8
26 -10 47 -3 20 -9 41 -15 47 -6 6 -106 10 -258 10 l-248 0 -10 -62z"/>
</g>
</svg>
