<svg xmlns="http://www.w3.org/2000/svg" version="1.2" baseProfile="tiny-ps" viewBox="0 0 18 18" width="18" height="18">
        <path fill="#FFFFFF" d="M8.44 0.43L0.92 7.95C0.64 8.23 0.5 8.58 0.5 9C0.5 9.42 0.64 9.77 0.92 10.04L8.44 17.55C8.73 17.85 9.09 17.99 9.49 17.99C9.89 17.99 10.24 17.85 10.53 17.55L11.4 16.69C11.69 16.41 11.84 16.06 11.84 15.65C11.84 15.23 11.69 14.89 11.4 14.61L8.01 11.21L16.15 11.21C16.55 11.21 16.87 11.07 17.12 10.78C17.37 10.49 17.5 10.14 17.5 9.74L17.5 8.26C17.5 7.85 17.37 7.5 17.12 7.21C16.87 6.92 16.55 6.78 16.15 6.78L8.01 6.78L11.4 3.38C11.69 3.11 11.84 2.76 11.84 2.34C11.84 1.94 11.69 1.59 11.4 1.29L10.53 0.43C10.23 0.14 9.89 0 9.49 0C9.09 0 8.74 0.14 8.44 0.43Z"></path>
    </svg>