<svg xmlns="http://www.w3.org/2000/svg" xmlns:xlink="http://www.w3.org/1999/xlink" width="142" height="41" version="1.1" viewBox="0 0 142 41"><title>logo@2x</title><desc>Created with Sketch.</desc><g id="PO-Listing" fill="none" fill-rule="evenodd" stroke="none" stroke-width="1"><g id="Header" fill="#FFF" fill-rule="nonzero"><g transform="translate(-25.000000, -9.000000)"><g id="logo" transform="translate(25.000000, 9.000000)"><g id="Group-2" transform="translate(49.990000, 0.000000)"><path id="Path" d="M-6.75015599e-14,2.67 C2.36,4.61 1.53,8.84 1.8,11.92 C2.05,14.73 6.46,16.31 6.46,16.31 L7.93,16.31 C8.56,13.66 9.55,9.64 7.58,5.32 C5.67,1.94 -6.75015599e-14,2.67 -6.75015599e-14,2.67 Z"/><path id="Path" d="M11.41,4.97 C10.07,4.29 8.74,3.88 7.53,3.63 C7.88,3.97 8.2,4.37 8.46,4.83 L8.48,4.87 L8.5,4.91 C10.55,9.42 9.62,13.54 8.96,16.31 L10.83,16.31 C10.83,16.31 12.01,14.7 13.03,12.63 C14.16,10.35 15.78,7.19 11.41,4.97 Z"/><path id="Path" d="M18.58,7.19 C17.31,2.32 10.47,2.97 8.81,-2.66453526e-14 L9.41,3.08 C10.21,3.33 11.04,3.66 11.87,4.08 C14.11,5.22 15.26,6.78 15.28,8.72 C15.3,10.3 14.56,11.79 13.97,12.99 L13.93,13.07 C13.24,14.46 12.5,15.64 12.05,16.31 L13.97,16.31 C13.98,16.31 19.56,10.93 18.58,7.19 Z"/></g><g id="Group" transform="translate(0.000000, 17.850000)"><path id="XMLID_272_" d="M141.21,11.84 L141.21,12.49 L134.44,12.49 L134.44,13.21 L133.94,13.21 L133.92,13.06 C133.85,12.65 133.73,12.48 133.42,12.28 L133.27,12.18 L133.27,11.83 L141.21,11.83 L141.21,11.84 Z"/><path id="XMLID_268_" d="M139.93,10.19 C140.41,10.19 140.65,9.95 140.65,9.47 L140.65,9.15 C140.65,8.66 140.41,8.43 139.93,8.43 L138.22,8.43 C137.7,8.43 137.46,8.69 137.46,9.2 L137.46,9.43 C137.46,9.94 137.7,10.2 138.22,10.2 L139.93,10.2 L139.93,10.19 Z M136.85,9.21 C136.85,8.7 136.59,8.44 136.07,8.44 L134.58,8.44 C134.1,8.44 133.86,8.69 133.86,9.18 L133.86,9.44 C133.86,9.93 134.1,10.17 134.58,10.17 L136.07,10.17 C136.59,10.17 136.85,9.91 136.85,9.4 L136.85,9.21 Z M133.24,9.19 C133.24,8.28 133.71,7.8 134.63,7.8 L135.9,7.8 C136.6,7.8 136.95,8.07 137.1,8.5 C137.24,8.03 137.54,7.77 138.17,7.77 L139.88,7.77 C140.79,7.77 141.27,8.23 141.27,9.16 L141.27,9.48 C141.27,10.41 140.8,10.87 139.88,10.87 L138.17,10.87 C137.54,10.87 137.23,10.61 137.1,10.14 C136.95,10.57 136.6,10.84 135.9,10.84 L134.63,10.84 C133.72,10.84 133.24,10.38 133.24,9.45 L133.24,9.19 Z"/><path id="XMLID_267_" d="M139.89,3.89 C140.8,3.89 141.28,4.35 141.28,5.27 L141.28,5.51 C141.28,6.41 140.82,6.86 139.92,6.86 L138.51,6.86 L138.51,6.19 L139.93,6.19 C140.42,6.19 140.65,5.95 140.65,5.47 L140.65,5.29 C140.65,4.82 140.41,4.57 139.93,4.57 L137.69,4.57 C137.19,4.57 136.93,4.8 136.93,5.24 C136.93,5.62 137.09,5.89 137.44,6.24 L137.44,6.8 L133.32,6.8 L133.32,3.98 L133.95,3.98 L133.95,6.17 L136.72,6.19 C136.48,5.9 136.3,5.58 136.3,5.08 C136.3,4.36 136.76,3.88 137.55,3.88 L139.89,3.88 L139.89,3.89 Z"/><path id="XMLID_266_" d="M139.89,0.01 C140.8,0.01 141.28,0.47 141.28,1.39 L141.28,1.63 C141.28,2.53 140.82,2.98 139.92,2.98 L138.51,2.98 L138.51,2.31 L139.93,2.31 C140.42,2.31 140.65,2.07 140.65,1.59 L140.65,1.41 C140.65,0.94 140.41,0.69 139.93,0.69 L137.69,0.69 C137.19,0.69 136.93,0.92 136.93,1.36 C136.93,1.74 137.09,2.01 137.44,2.36 L137.44,2.92 L133.32,2.92 L133.32,0.1 L133.95,0.1 L133.95,2.29 L136.72,2.31 C136.48,2.02 136.3,1.7 136.3,1.2 C136.3,0.48 136.76,-4.61852778e-14 137.55,-4.61852778e-14 L139.89,-4.61852778e-14 L139.89,0.01 Z"/><path id="XMLID_264_" d="M9.57,8.69 L9.57,7.1 L9.57,4.31 L11.16,4.31 L11.16,7.1 L20.73,7.1 L20.73,3.25 C20.73,1.49 19.3,0.06 17.54,0.06 L3.19,0.06 C1.43,0.06 8.8817842e-15,1.48 8.8817842e-15,3.24 L8.8817842e-15,13.34 L9.57,13.34 L11.16,13.34 L11.16,14.93 L11.16,17.72 L9.57,17.72 L9.57,14.93 L8.8817842e-15,14.93 L8.8817842e-15,19.18 C8.8817842e-15,20.94 1.43,22.37 3.19,22.37 L17.54,22.37 C19.3,22.37 20.73,20.94 20.73,19.18 L20.73,8.68 L11.16,8.68 L9.57,8.68 L9.57,8.69 Z"/><path id="XMLID_259_" d="M108.42,6.69 L108.42,8.28 L119.58,8.28 L119.58,13.34 L108.42,13.34 L108.42,14.93 L119.58,14.93 L119.58,22.37 L102.04,22.37 C100.29,22.37 98.85,20.94 98.85,19.18 L98.85,3.24 C98.85,1.47 100.28,0.05 102.04,0.05 L119.58,0.05 L119.58,6.68 L108.42,6.68 L108.42,6.69 Z"/><path id="XMLID_256_" d="M43.05,3.24 C43.05,1.48 41.62,0.05 39.86,0.05 L25.51,0.05 C23.75,0.05 22.32,1.48 22.32,3.24 L22.32,22.37 L31.89,22.37 L31.89,15.45 L33.48,15.45 L33.48,22.37 L43.05,22.37 L43.05,3.24 L43.05,3.24 Z M33.48,10.41 L31.89,10.41 L31.89,4.34 L33.48,4.34 L33.48,10.41 Z"/><path id="XMLID_255_" d="M87.69,0.06 L87.69,17.73 L86.1,17.73 L86.1,0.06 L76.53,0.06 L76.53,19.19 C76.53,20.95 77.96,22.38 79.72,22.38 L94.07,22.38 C95.83,22.38 97.26,20.95 97.26,19.19 L97.26,0.06 L87.69,0.06 Z"/><polygon id="XMLID_254_" points="130.74 .06 121.17 .06 121.17 22.38 141.21 22.38 141.21 14.94 130.74 14.94"/><path id="XMLID_253_" d="M63.71,0.06 L64.09,2.09 C63.61,2.09 63.18,2.44 63.09,2.92 L59.79,16.33 L56.49,2.92 C56.39,2.44 55.96,2.09 55.49,2.09 L55.87,0.06 L44.64,0.06 L44.64,22.38 L54.21,22.38 L54.21,10.4 L55.8,10.4 L55.8,22.37 L63.77,22.37 L63.77,10.4 L65.36,10.4 L65.36,22.37 L74.93,22.37 L74.93,0.06 L63.71,0.06 Z"/></g></g></g></g></g></svg>