<svg xmlns="http://www.w3.org/2000/svg" xmlns:xlink="http://www.w3.org/1999/xlink" id="Capa_1" x="0" y="0" enable-background="new 0 0 612 612" version="1.1" viewBox="0 0 612 612" xml:space="preserve"><style type="text/css">.st0{fill:#fff}</style><g><g id="_x34__4_"><g><path d="M606.2,578.7l-158-155.5c41.4-45,66.8-104.4,66.8-169.8C515,113.4,399.7,0,257.5,0S0,113.4,0,253.4 s115.3,253.4,257.5,253.4c61.4,0,117.8-21.3,162.1-56.6l158.6,156.1c7.7,7.6,20.3,7.6,28,0C613.9,598.7,613.9,586.3,606.2,578.7z M257.5,467.8c-120.3,0-217.9-96-217.9-214.4S137.2,39,257.5,39c120.3,0,217.9,96,217.9,214.4S377.8,467.8,257.5,467.8z" class="st0"/></g></g></g></svg>